<?xml version="1.0" encoding="UTF-8"?>
<svg id="Layer_1" data-name="Layer 1" xmlns="http://www.w3.org/2000/svg" viewBox="0 0 1060.96 211.76">
  <defs>
    <style>
      .cls-1 {
        fill: #32d876;
      }

      .cls-1, .cls-2 {
        stroke-width: 0px;
      }

      .cls-2 {
        fill: #012462;
      }
    </style>
  </defs>
  <g>
    <path class="cls-2" d="m1033.31,23.36c-16.86-15.06-39.74-23.36-64.42-23.36h-161.26c-28.51,0-54.75,11.13-73.88,31.34-8.97,9.48-16,20.51-20.87,32.77-4.91,12.34-7.39,25.34-7.39,38.64s2.47,25.19,7.35,36.22c4.75,10.74,11.65,20.13,20.5,27.9,16.6,14.58,39.41,22.61,64.22,22.61h161.67c28.16,0,54.23-11.28,73.43-31.78,8.94-9.55,15.95-20.59,20.84-32.83,4.95-12.39,7.46-25.37,7.46-38.56,0-24.66-9.82-47.02-27.65-62.96Z"/>
    <path class="cls-1" d="m968.89,19.76c-48.07,0-81.56,38.21-81.56,82.99,0,40.26,32.05,66.97,71.9,66.97,48.07,0,81.97-40.26,81.97-83.4,0-39.85-32.05-66.56-72.31-66.56Zm-8.22,119.97c-23.42,0-38.41-15-38.41-38.83,0-26.71,17.87-50.74,45.4-50.74,23.42,0,38.62,17.26,38.62,38.21,0,26.09-17.26,51.36-45.61,51.36Zm-163.11,29.99c-40.06,0-72.31-24.86-72.31-66.97s33.48-82.99,82.38-82.99c35.54,0,64.09,17.67,70.05,56.08h-33.49c-5.14-16.85-19.72-25.88-38-25.88-28.14,0-46.22,24.65-46.22,53.21,0,23.21,13.97,37.8,39.24,37.8,17.87,0,31.02-10.27,35.95-20.54h-44.99l5.75-28.55h82.58c-3.7,40.26-33.28,77.86-80.94,77.86Z"/>
  </g>
  <g>
    <path class="cls-2" d="m81.65,80.59v-15.16h32.54v99.84c0,26.48-24.86,46.48-56.99,46.48-28.3,0-48.91-12.13-56.19-36.38h32.94c3.84,7.28,11.52,10.91,22.84,10.91,13.54,0,24.25-7.07,24.25-21.22v-16.17c-4.65,8.29-16.77,15.97-31.12,15.97-29.51,0-49.92-21.83-49.92-50.93s20.41-50.93,49.92-50.93c15.36,0,27.08,7.28,31.73,17.58Zm-.61,33.35c0-13.74-9.9-23.85-24.45-23.85s-23.85,10.1-23.85,23.85,9.5,23.85,23.85,23.85,24.45-10.11,24.45-23.85Zm157.03,2.43c0,27.49-20.41,53.36-56.59,53.36s-56.59-25.87-56.59-53.36,20.41-53.36,56.59-53.36,56.59,25.87,56.59,53.36Zm-32.34,0c0-13.54-8.09-25.87-24.25-25.87s-24.25,12.33-24.25,25.87,8.09,25.87,24.25,25.87,24.25-12.33,24.25-25.87Zm76.19,35.77v57.4h-33.15V65.44h31.93v15.16c5.66-9.7,17.38-17.58,32.74-17.58,29.51,0,50.93,23.04,50.93,53.36s-21.42,53.36-50.93,53.36c-15.36,0-26.88-7.28-31.53-17.58Zm0-35.77c0,14.96,10.31,25.87,24.86,25.87s24.46-11.12,24.46-25.87-10.11-25.87-24.46-25.87-24.86,10.91-24.86,25.87Zm126.3,50.93h-33.14V19.76h33.14v59.82c4.45-9.9,16.17-16.57,29.71-16.57,24.45,0,36.58,16.78,36.58,41.03v63.26h-33.14v-57.8c0-10.51-5.05-17.79-16.17-17.79-9.9,0-16.98,6.06-16.98,17.58v58Zm152.58-31.73h30.52c-6.27,19.2-26.48,34.16-51.94,34.16-35.57,0-55.78-22.23-55.78-53.56s22.64-53.15,54.37-53.15,54.16,20.61,54.16,53.56v9.9h-75.99c2.02,11.12,8.89,19.2,23.24,19.2,9.9,0,17.58-3.84,21.42-10.1Zm-44.67-29.51h44.26c-1.62-12.13-9.5-20.01-22.03-20.01s-20.41,7.28-22.23,20.01Zm152.58-8.49h-6.67c-18.19,0-25.67,7.48-25.67,27.28v42.44h-33.14v-101.86h32.13v20.21c4.24-16.37,16.77-21.02,30.11-21.02h3.23v32.94Z"/>
    <path class="cls-2" d="m684.98,61.88c6.62,0,10.68,4.83,10.68,10.39s-4.06,10.44-10.68,10.44-10.68-4.98-10.68-10.44,4.06-10.39,10.68-10.39Zm-8.99,10.39c0,4.98,3.63,8.99,8.99,8.99s8.99-4.01,8.99-8.99-3.58-8.94-8.99-8.94-8.99,3.96-8.99,8.94Zm10.92,1.35l2.51,2.9h-2.42l-2.22-2.66h-1.21v2.66h-1.93v-9.23h3.87c2.03,0,3.48,1.5,3.48,3.29,0,1.35-.82,2.56-2.08,3.04Zm-1.74-1.3c1.21,0,1.93-.68,1.93-1.74s-.72-1.69-1.93-1.69h-1.6v3.43h1.6Z"/>
  </g>
</svg>