<svg width="539" height="199" viewBox="0 0 539 199" fill="none" xmlns="http://www.w3.org/2000/svg">
<g clip-path="url(#clip0_889_18248)">
<path d="M182.94 50.79C182.79 51.0324 182.633 51.2616 182.47 51.4974C182.633 51.2682 182.79 51.0324 182.94 50.79Z" fill="#32D876"/>
<path d="M172.263 57.6016C172.152 57.6147 172.041 57.6343 171.93 57.6409C172.041 57.6278 172.152 57.6147 172.263 57.6016Z" fill="#32D876"/>
<path d="M173.605 57.3789C173.513 57.3986 173.428 57.4182 173.337 57.4313C173.428 57.4116 173.513 57.3986 173.605 57.3789Z" fill="#32D876"/>
<path d="M50.4576 57.7129C50.4576 58.3744 50.4053 59.0162 50.3203 59.645V156.578C50.3661 156.578 50.4118 156.578 50.4576 156.584V57.7129Z" fill="#32D876"/>
<path d="M50.4443 57.4312C50.4443 57.5228 50.4574 57.6211 50.4574 57.7128V57.4312H50.4443Z" fill="#32D876"/>
<path d="M38.9019 57.431C37.9133 57.431 37.0687 57.287 36.2242 57.1494C36.0801 57.1494 35.7986 57.0053 35.5171 57.0053C34.81 56.8612 34.247 56.7237 33.6839 56.4421C33.4024 56.298 33.2584 56.298 32.9769 56.1604C32.1323 55.8788 31.4253 55.4531 30.7247 55.0339L30.5872 54.8898C30.0242 54.4641 29.4612 54.045 28.8981 53.4817C28.7541 53.3376 28.4726 53.056 28.3351 52.9184C27.9095 52.4927 27.4905 51.9295 27.209 51.5103C26.9275 51.2287 26.7835 51.0846 26.646 50.803C26.2204 50.0956 25.8014 49.3948 25.5199 48.6875C25.6639 41.4961 31.5824 35.7129 38.7709 35.7129C42.5747 35.7129 46.097 37.4027 48.4932 40.0814L54.8372 46.4279C63.1518 27.251 82.3213 13.7131 104.587 13.7131H104.725V35.8504C116.143 35.8504 125.302 45.0132 125.302 56.4355V69.1154C131.639 71.0802 136.386 76.9289 136.857 83.7928C137.139 92.818 129.95 100.291 120.929 100.291C119.56 100.291 118.238 100.121 116.981 99.8129V109.454C123.41 113.266 127.96 119.985 128.68 127.93L132.523 167.856C133.204 167.581 133.951 167.41 134.743 167.41C137.42 167.41 139.535 169.1 140.38 171.497C141.506 170.089 143.057 169.1 145.028 169.1C146.436 169.1 147.706 169.526 148.694 170.371C149.257 166.284 152.78 163.179 157.009 163.179C157.696 163.179 158.351 163.284 158.98 163.428V59.874C158.888 59.2191 158.842 58.5445 158.842 57.8502C158.842 49.2507 165.887 42.1969 174.489 42.1969C174.646 42.1969 174.804 42.2166 174.961 42.2231C175.131 42.2166 175.301 42.1969 175.478 42.1969C179.282 42.1969 182.666 44.4499 184.356 47.6985C184.015 48.7726 183.544 49.8009 182.968 50.7506C184.375 48.5041 185.2 45.8646 185.2 43.0483C185.2 35.0121 178.719 28.384 170.541 28.384C166.456 28.384 162.79 30.0738 160.112 32.615L153.349 39.3806L153.212 39.5247C146.449 28.2465 135.875 19.5029 123.187 15.2719L125.302 11.6042C119.24 9.35117 112.614 8.08057 105.714 8.08057C83.8663 8.08057 64.9784 20.7735 55.9632 39.2431L49.2002 32.4775C46.5225 29.7987 42.8562 28.2465 38.7709 28.2465C30.7378 28.2465 24.1123 34.8746 24.1123 42.9108C24.1123 50.947 30.7378 57.5751 38.7709 57.5751H43.2752C43.2752 57.5293 43.2752 57.4834 43.2752 57.431H38.915H38.9019Z" fill="#32D876"/>
<path d="M92.4624 109.454V99.898C91.3298 100.153 90.1513 100.298 88.9402 100.298C81.1493 100.298 74.7398 94.7174 73.3126 87.3819C73.3126 87.4081 73.2995 87.4343 73.2995 87.4671C73.2864 87.3688 73.2798 87.2772 73.2667 87.1789C73.0703 86.0851 72.9787 84.9586 73.018 83.7994C73.2536 76.9879 77.8889 71.1719 84.1543 69.1678V56.4487C84.1543 45.0263 93.3135 35.8636 104.731 35.8636V13.7197H104.594C82.3277 13.7197 63.1582 27.2575 54.8436 46.4345L48.4996 40.088C46.1034 37.4093 42.5812 35.7195 38.7774 35.7195C31.5888 35.7195 25.6704 41.5027 25.5264 48.6941C25.8079 49.4014 26.2334 50.1022 26.6524 50.8095C26.7965 51.0912 26.934 51.2353 27.2155 51.5169C27.497 51.9426 27.9226 52.5059 28.3416 52.925C28.4856 53.0691 28.7671 53.3507 28.9046 53.4883C29.4676 54.0515 30.0307 54.4773 30.5937 54.8964L30.7312 55.0405C31.4383 55.4662 32.1388 55.8854 32.9833 56.167C33.2649 56.3111 33.4089 56.3111 33.6904 56.4487C34.2535 56.7303 34.8165 56.8744 35.5236 57.0119C35.8051 57.0119 36.0866 57.156 36.2306 57.156C37.0752 57.3001 37.9197 57.4376 38.9083 57.4376H43.2686C43.1377 50.2332 38.1162 44.1618 31.1567 42.4917C32.4269 42.2101 33.5529 42.066 34.823 42.066C43.3275 42.066 50.3 48.9626 50.4506 57.4376H50.4637V156.591C54.8567 156.885 58.3593 160.56 58.3593 165.02C58.3593 165.583 58.3593 166.009 58.2153 166.572C58.9224 166.146 59.9044 165.865 60.893 165.865C63.7147 165.865 66.1109 167.836 66.674 170.377C67.9441 167.273 71.0408 165.02 74.5696 165.02C75.4731 165.02 76.3373 165.197 77.1622 165.472L80.7761 127.936C81.4963 119.992 86.0464 113.272 92.4755 109.46L92.4624 109.454Z" fill="#1BAF61"/>
<path d="M116.981 109.454V110.305C116.981 110.869 116.556 111.294 115.993 111.294H112.595C110.794 112.663 107.94 113.547 104.712 113.547C101.485 113.547 98.6301 112.657 96.8297 111.294H93.4318C92.8688 111.294 92.4432 110.869 92.4432 110.305V109.454C86.0141 113.266 81.464 119.985 80.7438 127.93L77.1299 165.465C80.1349 166.474 82.4133 169.133 82.8585 172.349C83.9845 171.222 85.3987 170.515 87.0878 170.515C88.921 170.515 90.3285 171.36 91.4546 172.486V171.779C91.4546 168.537 94.1323 165.858 97.3731 165.858C100.614 165.858 103.292 168.537 103.292 171.779V171.923C104.562 171.078 106.251 170.515 107.94 170.515C110.192 170.515 112.169 171.36 113.721 172.768C114.709 169.244 117.95 166.703 121.754 166.703C124.995 166.703 127.816 168.537 129.224 171.216C129.807 169.663 130.998 168.458 132.504 167.849L128.661 127.923C127.941 119.979 123.391 113.259 116.962 109.447L116.981 109.454Z" fill="#86F7BC"/>
<path d="M96.8428 111.294C98.6432 112.663 101.498 113.547 104.725 113.547C107.953 113.547 110.807 112.656 112.608 111.294H96.8493H96.8428Z" fill="#1BAF61"/>
<path d="M105.851 89.7201C105.57 88.8752 104.3 88.8752 104.018 89.7201C102.159 94.8352 97.8052 98.6994 92.4629 99.898V110.305C92.4629 110.868 92.8884 111.294 93.4515 111.294H116.006C116.569 111.294 116.994 110.868 116.994 110.305V99.8129C111.783 98.5226 107.678 94.7174 105.858 89.7201H105.851Z" fill="white"/>
<path d="M84.1416 56.4422V69.1613C85.3986 68.7553 86.7211 68.4933 88.0894 68.4212H90.1648C92.2074 64.8976 97.9491 62.3564 104.725 62.3564C111.501 62.3564 117.243 64.8976 119.286 68.4212H121.499C122.814 68.4867 124.085 68.7356 125.302 69.1155V56.4357C125.302 45.0133 116.143 35.8506 104.725 35.8506C93.3073 35.8506 84.1481 45.0133 84.1481 56.4357L84.1416 56.4422ZM110.218 50.3774C110.218 49.1068 111.344 47.9803 112.614 47.9803C113.884 47.9803 115.01 48.9692 115.01 50.3774V56.2981C115.01 57.5687 113.884 58.6952 112.614 58.6952C111.344 58.6952 110.218 57.5687 110.218 56.2981V50.3774ZM94.5709 50.3774C94.5709 49.1068 95.697 47.9803 96.9671 47.9803C98.2372 47.9803 99.3633 48.9692 99.3633 50.3774V56.2981C99.3633 57.5687 98.2372 58.6952 96.9671 58.6952C95.697 58.6952 94.5709 57.5687 94.5709 56.2981V50.3774Z" fill="white"/>
<path d="M73.2603 87.1725C73.1295 86.0198 73.0118 84.9653 73.0118 83.793C72.9726 84.9522 73.0641 86.0787 73.2603 87.1725Z" fill="#1BAF61"/>
<path d="M119.279 68.4274C119.79 69.3116 120.085 70.2613 120.085 71.2503C120.085 76.1559 113.204 80.1314 104.719 80.1314C98.0345 80.1314 92.3583 77.6557 90.2502 74.2107H88.0897C80.6458 74.6298 74.4655 80.0921 73.3066 87.3817C74.7339 94.7171 81.1433 100.297 88.9342 100.297C90.1454 100.297 91.3239 100.153 92.4565 99.8978C97.7988 98.6992 102.153 94.835 104.012 89.7199C104.293 88.875 105.563 88.875 105.845 89.7199C107.665 94.7171 111.77 98.5224 116.981 99.8127C118.238 100.127 119.561 100.291 120.929 100.291C129.951 100.291 137.139 92.8178 136.858 83.7926C136.387 76.9352 131.64 71.08 125.303 69.1151C124.085 68.7353 122.815 68.4864 121.499 68.4209H119.286L119.279 68.4274Z" fill="#1BAF61"/>
<path d="M88.0891 74.2109H90.2496C89.68 73.2809 89.3592 72.2919 89.3592 71.2506C89.3592 70.2092 89.6472 69.3185 90.1644 68.4277H88.0891C86.7207 68.4998 85.4048 68.7618 84.1413 69.1678C77.8758 71.172 73.2406 76.9879 73.0049 83.7994C73.0049 84.9718 73.1293 86.0262 73.2537 87.179C73.2668 87.2772 73.2733 87.3689 73.2864 87.4671C73.2864 87.4409 73.2995 87.4147 73.2995 87.382C74.4583 80.0924 80.6386 74.6301 88.0825 74.2109H88.0891Z" fill="#32D876"/>
<path d="M90.2495 74.2108C92.3576 77.6559 98.0338 80.1316 104.718 80.1316C113.203 80.1316 120.084 76.156 120.084 71.2505C120.084 70.2615 119.796 69.3184 119.279 68.4276C117.236 64.904 111.494 62.3628 104.718 62.3628C97.9421 62.3628 92.2005 64.904 90.1578 68.4276C89.6406 69.3118 89.3525 70.2615 89.3525 71.2505C89.3525 72.2918 89.6799 73.2808 90.2429 74.2108H90.2495Z" fill="#012462"/>
<path d="M175.478 42.2036C175.301 42.2036 175.131 42.2233 174.961 42.2298C176.067 42.2626 177.167 42.3805 178.156 42.6293C171.249 44.1816 166.175 50.3839 166.175 57.7194H170.542C171.006 57.7194 171.471 57.6932 171.923 57.6473C172.034 57.6342 172.146 57.6211 172.257 57.608C172.624 57.5622 172.984 57.5098 173.337 57.4377C173.429 57.4181 173.514 57.405 173.606 57.3854C176.892 56.6846 179.76 54.8834 181.802 52.3946C181.848 52.3422 181.887 52.2833 181.933 52.2309C182.123 51.9951 182.306 51.7528 182.477 51.5039C182.64 51.2747 182.798 51.0389 182.948 50.7966C182.955 50.7835 182.961 50.7704 182.968 50.7573C183.544 49.8076 184.015 48.7793 184.356 47.7052C182.667 44.4632 179.282 42.2036 175.478 42.2036Z" fill="#1BAF61"/>
<path d="M162.509 21.4744C159.405 22.4633 156.728 24.2972 154.332 26.6943L154.187 26.8384C148.97 20.636 142.488 15.4161 135.162 11.6108L136.57 9.06962C136.995 8.36227 136.714 7.37985 135.863 7.09822L128.248 4.13784C124.445 2.7297 120.634 1.59664 116.693 0.895842C91.8867 -3.19105 68.3504 6.96068 54.3988 26.1376C50.1695 22.1883 44.6766 20.0728 38.8956 20.0728C25.0816 20.0728 14.0892 32.1959 16.2039 46.4411C17.7555 57.7193 27.9033 66.0372 39.4587 66.0372H42.1364V152.517C41.9007 152.497 41.6716 152.471 41.4293 152.471C37.344 152.471 33.8152 155.431 33.1147 159.381C32.2701 158.955 31.4256 158.817 30.5745 158.817C27.3337 158.817 24.656 161.496 24.656 164.738V164.882C24.2305 164.882 23.949 164.738 23.53 164.738C18.8816 164.738 15.0713 168.543 15.0713 173.2C15.0713 177.857 18.8751 181.662 23.53 181.662C24.5185 181.662 25.5006 181.518 26.3517 181.099C27.1962 183.352 29.3109 185.048 31.8511 185.048C33.2587 185.048 34.5288 184.485 35.5174 183.64C37.069 186.037 39.6027 187.589 42.5619 187.589C44.2511 187.589 45.8027 187.026 47.2103 186.181C47.9174 188.578 50.1695 190.268 52.8472 190.268C54.3988 190.268 55.8064 189.705 56.795 188.716C58.2026 191.539 61.0243 193.366 64.2651 193.366C67.2243 193.366 69.902 191.814 71.4536 189.417C72.8612 190.687 74.8384 191.388 76.8091 191.388C79.4868 191.388 81.7389 190.117 83.2905 188.284C83.7161 191.106 86.1123 193.359 89.0715 193.359C91.7492 193.359 94.0014 191.526 94.7084 188.991C96.26 190.399 98.2307 191.388 100.489 191.388C102.46 191.388 104.293 190.681 105.845 189.417C106.971 192.803 110.074 195.2 113.878 195.2C117.4 195.2 120.359 193.084 121.629 190.124C122.756 191.676 124.451 192.665 126.422 192.665C128.255 192.665 129.807 191.82 130.933 190.55C132.34 193.228 135.162 195.2 138.403 195.2C141.362 195.2 144.04 193.648 145.591 191.251C147.143 193.648 149.677 195.2 152.78 195.2C156.165 195.2 159.124 193.084 160.531 190.124C162.083 190.124 163.491 189.561 164.479 188.572C166.031 190.262 168.146 191.251 170.679 191.251C174.202 191.251 177.161 189.135 178.431 186.175C180.12 186.031 181.672 185.186 182.66 183.922C183.367 184.066 184.068 184.203 184.775 184.203C189.423 184.203 193.234 180.398 193.234 175.741C193.659 172.781 192.245 170.384 190.13 168.832C190.274 168.268 190.412 167.843 190.412 167.279C190.412 164.037 187.734 161.359 184.493 161.359C183.223 161.359 182.097 161.784 181.109 162.485C180.12 158.817 176.879 156.139 172.931 156.139V155.713C172.931 152.517 170.326 149.884 167.15 149.805V66.1813H169.691C182.097 66.1813 192.664 56.7369 193.371 44.4697C194.36 28.6788 178.994 15.9859 162.502 21.4875L162.509 21.4744ZM182.968 50.7506C182.968 50.7506 182.955 50.7768 182.948 50.7899C182.798 51.0323 182.641 51.268 182.477 51.4973C182.307 51.7462 182.123 51.9885 181.933 52.2243C181.888 52.2767 181.848 52.3356 181.803 52.388C179.766 54.8768 176.892 56.6779 173.606 57.3787C173.514 57.3984 173.429 57.418 173.337 57.4311C172.984 57.5032 172.624 57.5556 172.257 57.6014C172.146 57.6145 172.034 57.6342 171.923 57.6407C171.465 57.6866 171.007 57.7128 170.542 57.7128H166.175C166.175 50.3839 171.249 44.1749 178.156 42.6227C177.167 42.3738 176.067 42.2559 174.961 42.2232C174.804 42.2232 174.647 42.197 174.49 42.197C165.893 42.197 158.842 49.2442 158.842 57.8503C158.842 58.5445 158.895 59.2191 158.98 59.8741V163.428C158.345 163.278 157.69 163.179 157.009 163.179C152.78 163.179 149.258 166.284 148.695 170.371C147.706 169.526 146.442 169.1 145.028 169.1C143.058 169.1 141.506 170.089 140.38 171.497C139.535 169.1 137.421 167.41 134.743 167.41C133.951 167.41 133.211 167.574 132.524 167.856C131.018 168.465 129.826 169.67 129.244 171.222C127.836 168.543 125.014 166.71 121.774 166.71C117.97 166.71 114.729 169.251 113.74 172.774C112.189 171.366 110.218 170.521 107.959 170.521C106.27 170.521 104.575 171.085 103.311 171.929V171.785C103.311 168.543 100.633 165.865 97.3927 165.865C94.1519 165.865 91.4742 168.543 91.4742 171.785V172.493C90.3481 171.366 88.934 170.521 87.1074 170.521C85.4183 170.521 84.0041 171.229 82.8781 172.355C82.4329 169.146 80.1545 166.48 77.1495 165.472C76.3311 165.197 75.4669 165.02 74.5569 165.02C71.0346 165.02 67.9314 167.273 66.6613 170.377C66.0982 167.836 63.7021 165.865 60.8803 165.865C59.8917 165.865 58.9097 166.146 58.2026 166.572C58.3466 166.009 58.3467 165.583 58.3467 165.02C58.3467 160.56 54.844 156.885 50.451 156.591C50.4052 156.591 50.3594 156.591 50.3135 156.584V59.6449C50.4052 59.0161 50.451 58.3743 50.451 57.7128C50.451 57.6145 50.4379 57.5228 50.4379 57.4311C50.2873 48.9626 43.3083 42.0595 34.8104 42.0595C33.5402 42.0595 32.4142 42.2035 31.1441 42.4852C38.0969 44.1553 43.125 50.2267 43.2559 57.4311C43.2559 57.477 43.2559 57.5228 43.2559 57.5752H38.7516C30.7185 57.5752 24.093 50.9471 24.093 42.9109C24.093 34.8746 30.7185 28.2466 38.7516 28.2466C42.8369 28.2466 46.5032 29.7988 49.1809 32.4775L55.9439 39.2432C64.9656 20.7736 83.8536 8.08064 105.694 8.08064C112.601 8.08064 119.227 9.35125 125.283 11.6043L123.168 15.272C135.856 19.503 146.423 28.2466 153.192 39.5248L153.33 39.3807L160.093 32.6151C162.771 30.0739 166.437 28.3841 170.522 28.3841C178.699 28.3841 185.181 35.0122 185.181 43.0484C185.181 45.8713 184.349 48.5042 182.948 50.7506H182.968Z" fill="#012462"/>
<path d="M187.177 187.15C183.936 187.15 181.259 189.829 181.259 193.071C181.259 196.313 183.936 198.992 187.177 198.992C190.418 198.992 193.096 196.313 193.096 193.071C193.096 189.829 190.555 187.15 187.177 187.15Z" fill="#012462"/>
<path d="M5.91845 166.984C2.6777 166.984 0 169.663 0 172.905C0 176.147 2.6777 178.826 5.91845 178.826C9.15919 178.826 11.8369 176.147 11.8369 172.905C11.6929 169.663 9.15919 166.984 5.91845 166.984Z" fill="#012462"/>
<path d="M199.015 178.125C196.9 178.125 195.211 179.815 195.211 181.931C195.211 184.046 196.9 185.598 199.015 185.598C201.129 185.598 202.681 183.909 202.681 181.931C202.825 179.815 201.129 178.125 199.015 178.125Z" fill="#012462"/>
<path d="M112.614 58.7018C113.884 58.7018 115.01 57.5753 115.01 56.3047V50.3839C115.01 48.9758 113.884 47.9868 112.614 47.9868C111.344 47.9868 110.218 49.1133 110.218 50.3839V56.3047C110.218 57.5753 111.344 58.7018 112.614 58.7018Z" fill="#012462"/>
<path d="M96.9665 58.7018C98.2366 58.7018 99.3627 57.5753 99.3627 56.3047V50.3839C99.3627 48.9758 98.2366 47.9868 96.9665 47.9868C95.6964 47.9868 94.5703 49.1133 94.5703 50.3839V56.3047C94.5703 57.5753 95.6964 58.7018 96.9665 58.7018Z" fill="#012462"/>
<path d="M231.48 69.952C241.208 69.952 248.504 74.56 251.448 81.088V42.56H272.44V136H252.216V126.4C248.632 132.544 241.208 137.536 231.48 137.536C212.792 137.536 199.224 122.944 199.224 103.744C199.224 84.544 212.792 69.952 231.48 69.952ZM235.704 120.128C244.92 120.128 251.448 113.216 251.448 103.744C251.448 94.272 244.92 87.36 235.704 87.36C226.616 87.36 220.216 94.4 220.216 103.744C220.216 113.088 226.616 120.128 235.704 120.128ZM319.293 122.304C325.565 122.304 330.429 119.872 332.861 115.904H352.189C348.221 128.064 335.421 137.536 319.293 137.536C296.765 137.536 283.965 123.456 283.965 103.616C283.965 83.648 298.301 69.952 318.397 69.952C338.365 69.952 352.701 83.008 352.701 103.872V110.144H304.573C305.853 117.184 310.205 122.304 319.293 122.304ZM318.653 84.544C310.717 84.544 305.725 89.152 304.573 97.216H332.605C331.581 89.536 326.589 84.544 318.653 84.544ZM393.605 69.952C403.333 69.952 411.013 74.56 413.957 81.088V71.488H434.565V136H414.341V126.4C410.757 132.544 403.333 137.536 393.605 137.536C374.917 137.536 361.349 122.944 361.349 103.744C361.349 84.544 374.917 69.952 393.605 69.952ZM397.829 120.128C407.045 120.128 413.573 113.216 413.573 103.744C413.573 94.272 407.045 87.36 397.829 87.36C388.741 87.36 382.341 94.4 382.341 103.744C382.341 113.088 388.741 120.128 397.829 120.128ZM470.922 136H449.93V42.56H470.922V136ZM482.209 115.904H499.489C499.873 120.512 502.817 123.456 508.449 123.456C513.185 123.456 516.129 120.896 516.129 117.44C516.129 114.496 514.465 112.832 510.881 111.936L502.049 109.632C489.633 106.56 484.129 100.672 484.129 90.176C484.129 77.504 495.137 69.952 508.321 69.952C522.785 69.952 530.849 78.272 532.001 90.048H514.721C514.593 87.232 512.929 84.032 508.705 84.032C504.993 84.032 502.945 86.08 502.945 88.896C502.945 91.712 504.737 93.248 507.937 94.016L519.329 97.088C529.953 99.904 534.945 106.048 534.945 115.392C534.945 128.832 522.401 137.536 508.705 137.536C494.753 137.536 483.617 131.392 482.209 115.904Z" fill="#012462"/>
</g>
<defs>
<clipPath id="clip0_889_18248">
<rect width="742.984" height="198.992" fill="white"/>
</clipPath>
</defs>
</svg>
