<?xml version="1.0" encoding="UTF-8"?>
<svg id="Layer_1" data-name="Layer 1" xmlns="http://www.w3.org/2000/svg" viewBox="0 0 784.9 192">
  <defs>
    <style>
      .cls-1 {
        fill: none;
      }

      .cls-1, .cls-2, .cls-3, .cls-4, .cls-5 {
        stroke-width: 0px;
      }

      .cls-2 {
        fill: #32d876;
      }

      .cls-3 {
        fill: #1baf61;
      }

      .cls-4 {
        fill: #fff;
      }

      .cls-5 {
        fill: #012462;
      }
    </style>
  </defs>
  <path class="cls-5" d="m81.65,60.83v-15.16h32.54v99.84c0,26.48-24.86,46.48-56.99,46.48-28.3,0-48.91-12.13-56.19-36.38h32.94c3.84,7.28,11.52,10.91,22.84,10.91,13.54,0,24.25-7.07,24.25-21.22v-16.17c-4.65,8.29-16.77,15.97-31.12,15.97C20.41,145.11,0,123.28,0,94.18s20.41-50.93,49.92-50.93c15.36,0,27.08,7.28,31.73,17.58Zm-.61,33.35c0-13.74-9.9-23.85-24.45-23.85s-23.85,10.1-23.85,23.85,9.5,23.85,23.85,23.85,24.45-10.11,24.45-23.85Z"/>
  <path class="cls-5" d="m371.16,132.38v57.4h-33.15V45.68h31.93v15.16c5.66-9.7,17.38-17.58,32.74-17.58,29.51,0,50.93,23.04,50.93,53.36s-21.42,53.36-50.93,53.36c-15.36,0-26.88-7.28-31.53-17.58Zm0-35.77c0,14.96,10.31,25.87,24.86,25.87s24.46-11.12,24.46-25.87-10.11-25.87-24.46-25.87-24.86,10.91-24.86,25.87Z"/>
  <path class="cls-5" d="m497.46,147.54h-33.14V0h33.14v59.82c4.45-9.9,16.17-16.57,29.71-16.57,24.45,0,36.58,16.78,36.58,41.03v63.26h-33.14v-57.8c0-10.51-5.05-17.79-16.17-17.79-9.9,0-16.98,6.06-16.98,17.58v58Z"/>
  <path class="cls-5" d="m650.05,115.81h30.52c-6.27,19.2-26.48,34.16-51.94,34.16-35.57,0-55.78-22.23-55.78-53.56s22.64-53.15,54.37-53.15,54.16,20.61,54.16,53.56v9.9h-75.99c2.02,11.12,8.89,19.2,23.24,19.2,9.9,0,17.58-3.84,21.42-10.1Zm-44.67-29.51h44.26c-1.62-12.13-9.5-20.01-22.03-20.01s-20.41,7.28-22.23,20.01Z"/>
  <path class="cls-5" d="m757.96,77.81h-6.67c-18.19,0-25.67,7.48-25.67,27.28v42.44h-33.14V45.68h32.13v20.21c4.24-16.37,16.77-21.02,30.11-21.02h3.23v32.94Z"/>
  <path class="cls-5" d="m774.22,42.12c6.62,0,10.68,4.83,10.68,10.39s-4.06,10.44-10.68,10.44-10.68-4.98-10.68-10.44,4.06-10.39,10.68-10.39Zm-8.99,10.39c0,4.98,3.63,8.99,8.99,8.99s8.99-4.01,8.99-8.99-3.58-8.94-8.99-8.94-8.99,3.96-8.99,8.94Zm10.92,1.35l2.51,2.9h-2.42l-2.22-2.66h-1.21v2.66h-1.93v-9.23h3.87c2.03,0,3.48,1.5,3.48,3.29,0,1.35-.82,2.56-2.08,3.04Zm-1.74-1.3c1.21,0,1.93-.68,1.93-1.74s-.72-1.69-1.93-1.69h-1.6v3.43h1.6Z"/>
  <g>
    <path class="cls-2" d="m316.04,96.86c-.05.06-.1.13-.15.19.05-.06.1-.13.15-.19Z"/>
    <path class="cls-2" d="m317.22,95.19c-.17.28-.36.55-.55.82.19-.27.37-.54.55-.82Z"/>
    <path class="cls-2" d="m304.76,103.13c-.13.02-.26.04-.39.05.13-.01.26-.03.39-.05Z"/>
    <path class="cls-2" d="m306.33,102.87c-.1.02-.21.04-.31.06.1-.02.21-.04.31-.06Z"/>
    <path class="cls-2" d="m162.64,103.26c0,.77-.06,1.52-.16,2.25l-.05,37.95c0-75.1.16-2.12.22-2.12v-38.09Z"/>
    <path class="cls-2" d="m162.62,102.93c0,.11.02.22.02.33v-.33h-.02Z"/>
    <path class="cls-4" d="m201.94,101.78v14.84c1.47-.47,3.01-.78,4.6-.86h2.42c2.38-4.11,9.08-7.07,16.99-7.07s14.61,2.96,16.99,7.07h2.58c1.54.08,3.02.37,4.44.81v-14.79c0-13.32-10.69-24.01-24.01-24.01s-24.01,10.69-24.01,24.01Zm30.42-7.07c0-1.48,1.32-2.8,2.8-2.8s2.8,1.15,2.8,2.8v6.91c0,1.48-1.32,2.8-2.8,2.8s-2.8-1.32-2.8-2.8v-6.91Zm-18.25,0c0-1.48,1.32-2.8,2.8-2.8s2.8,1.15,2.8,2.8v6.91c0,1.48-1.32,2.8-2.8,2.8s-2.8-1.32-2.8-2.8v-6.91Z"/>
    <path class="cls-3" d="m189.24,137.62c-.15-1.34-.29-2.58-.29-3.94-.04,1.35.06,2.67.29,3.94Z"/>
    <path class="cls-3" d="m263.45,133.68c-.55-8-6.09-14.83-13.49-17.12-1.42-.44-2.9-.73-4.44-.81h-2.58c.6,1.03.94,2.14.94,3.29,0,5.72-8.03,10.36-17.93,10.36-7.8,0-14.42-2.89-16.88-6.91h-2.52c-8.68.49-15.89,6.86-17.25,15.36,1.66,8.55,9.15,15.06,18.24,15.06,1.41,0,2.79-.17,4.11-.46,3.15-.71,6.01-2.21,8.35-4.3l9.46,2.28,4.19-1.23c1.94,1.46,4.17,2.54,6.62,3.15,1.47.36,3.01.56,4.6.56,10.53,0,18.91-8.72,18.58-19.24Z"/>
    <path class="cls-2" d="m206.55,122.5h2.52c-.66-1.08-1.04-2.24-1.04-3.45s.34-2.25.94-3.29h-2.42c-1.6.08-3.14.39-4.6.86-7.31,2.34-12.72,9.12-12.99,17.07,0,1.36.14,2.6.29,3.94.01.11.02.22.04.33,0-.03.01-.06.02-.1,1.36-8.5,8.57-14.87,17.25-15.36Z"/>
    <path class="cls-5" d="m209.07,122.5c2.46,4.02,9.08,6.91,16.88,6.91,9.9,0,17.93-4.64,17.93-10.36,0-1.15-.34-2.25-.94-3.29-2.38-4.11-9.08-7.07-16.99-7.07s-14.61,2.96-16.99,7.07c-.6,1.03-.94,2.14-.94,3.29,0,1.21.38,2.37,1.04,3.45Z"/>
    <path class="cls-3" d="m308.51,85.17c-.2,0-.4.02-.6.03,1.29.04,2.58.17,3.73.46-8.06,1.81-13.98,9.05-13.98,17.6h5.1c.55,0,1.08-.03,1.62-.08.13-.01.26-.03.39-.05.43-.05.85-.11,1.26-.19.1-.02.21-.04.31-.06,3.83-.82,7.18-2.92,9.56-5.82.05-.06.1-.13.15-.19.22-.28.43-.56.63-.85.19-.27.38-.54.55-.82,0-.01.02-.03.03-.04.67-1.11,1.22-2.3,1.62-3.56-1.97-3.78-5.92-6.41-10.36-6.41Z"/>
    <path class="cls-5" d="m235.16,104.41c1.48,0,2.8-1.32,2.8-2.8v-6.91c0-1.64-1.32-2.8-2.8-2.8s-2.8,1.32-2.8,2.8v6.91c0,1.48,1.32,2.8,2.8,2.8Z"/>
    <path class="cls-5" d="m216.91,104.41c1.48,0,2.8-1.32,2.8-2.8v-6.91c0-1.64-1.32-2.8-2.8-2.8s-2.8,1.32-2.8,2.8v6.91c0,1.48,1.32,2.8,2.8,2.8Z"/>
    <path class="cls-5" d="m162.47,105.51c.1-.73.16-1.48.16-2.25,0-.11-.01-.22-.02-.33-.18-9.88-8.32-17.93-18.24-17.93-1.48,0-2.8.16-4.28.49,8.12,1.95,13.98,9.03,14.13,17.43,0,.06,0,.11,0,.16h-5.26c-9.37,0-17.1-7.73-17.1-17.1s7.73-17.1,17.1-17.1c4.77,0,9.05,1.81,12.17,4.93l7.89,7.89c10.52-21.54,32.56-36.34,58.05-36.34,8.06,0,15.79,1.48,22.86,4.11l-2.47,4.28c14.8,4.93,27.14,15.13,35.03,28.29l.16-.16,7.89-7.89c3.12-2.96,7.4-4.93,12.17-4.93,9.54,0,17.1,7.73,17.1,17.1,0,3.29-.97,6.37-2.61,8.99,0,.01-.02.03-.03.04-.18.28-.36.55-.55.82-.2.29-.42.57-.63.85-.05.06-.1.13-.15.19-2.38,2.9-5.73,5-9.56,5.82-.1.02-.21.04-.31.06-.41.08-.83.14-1.26.19-.13.02-.26.04-.39.05-.53.05-1.07.08-1.62.08h-5.1c0-8.55,5.92-15.79,13.98-17.6-1.15-.29-2.43-.43-3.73-.46-.18,0-.36-.03-.55-.03-10.03,0-18.25,8.22-18.25,18.25,0,.81.06,1.59.16,2.36v47.11h9.54v-39.76h2.96c14.47,0,26.81-11.02,27.63-25.33,1.15-18.42-16.77-33.22-36.02-26.81-3.62,1.15-6.74,3.29-9.54,6.08l-.16.16c-6.08-7.24-13.65-13.32-22.2-17.76l1.64-2.96c.49-.82.16-1.97-.82-2.3l-8.88-3.45c-4.44-1.64-8.88-2.96-13.49-3.78-28.94-4.77-56.41,7.07-72.69,29.44-4.93-4.6-11.35-7.07-18.09-7.07-16.12,0-28.94,14.14-26.48,30.75,1.81,13.16,13.65,22.86,27.14,22.86h3.12v39.93h9.54v-47.38Z"/>
    <g>
      <path class="cls-1" d="m254.13,150.45l-13.87,1.92c1.47.36,3.01.56,4.6.56,3.38,0,6.54-.9,9.27-2.48Z"/>
      <path class="cls-2" d="m319.86,86.16c0-9.37-7.57-17.1-17.1-17.1-4.77,0-9.05,1.97-12.17,4.93l-7.89,7.89-.16.16c-7.89-13.16-20.23-23.35-35.03-28.29l2.47-4.28c-7.07-2.63-14.8-4.11-22.86-4.11-25.49,0-47.53,14.8-58.05,36.34l-7.89-7.89c-3.12-3.12-7.4-4.93-12.17-4.93-9.37,0-17.1,7.73-17.1,17.1s7.73,17.1,17.1,17.1h5.26c0-.06,0-.11,0-.16h-5.08c-1.15,0-2.14-.16-3.12-.33-.16,0-.49-.16-.82-.16-.82-.16-1.48-.33-2.14-.66-.33-.16-.49-.16-.82-.33-.99-.33-1.81-.82-2.63-1.32l-.16-.16c-.66-.49-1.32-.99-1.97-1.64-.16-.16-.49-.49-.66-.66-.49-.49-.99-1.15-1.32-1.64-.33-.33-.49-.49-.66-.82-.49-.82-.99-1.64-1.32-2.47.16-8.39,7.07-15.13,15.46-15.13,4.44,0,8.55,1.97,11.35,5.1l7.4,7.4c9.7-22.37,32.07-38.15,58.05-38.15h.16v25.82c13.32,0,24.01,10.69,24.01,24.01v14.79c7.4,2.29,12.93,9.11,13.49,17.12.22,7.14-3.57,13.45-9.32,16.77l35.14-4.85v-39.81c-.1-.77-.16-1.55-.16-2.36,0-10.03,8.22-18.25,18.25-18.25.18,0,.36.03.55.03.2-.01.4-.03.6-.03,4.44,0,8.39,2.63,10.36,6.41-.4,1.26-.95,2.45-1.62,3.56,1.64-2.62,2.61-5.7,2.61-8.99Z"/>
    </g>
    <path class="cls-3" d="m189.3,137.86s-.01.06-.02.1c-.01-.12-.02-.22-.04-.33-.23-1.27-.34-2.59-.29-3.94.27-7.94,5.69-14.73,12.99-17.07v-14.84c0-13.32,10.69-24.01,24.01-24.01v-25.82h-.16c-25.98,0-48.35,15.79-58.05,38.15l-7.4-7.4c-2.8-3.12-6.91-5.1-11.35-5.1-8.39,0-15.29,6.74-15.46,15.13.33.82.82,1.64,1.32,2.47.16.33.33.49.66.82.33.49.82,1.15,1.32,1.64.16.16.49.49.66.66.66.66,1.32,1.15,1.97,1.64l.16.16c.82.49,1.64.99,2.63,1.32.33.16.49.16.82.33.66.33,1.32.49,2.14.66.33,0,.66.16.82.16.99.16,1.97.33,3.12.33h5.08c-.15-8.41-6.01-15.48-14.13-17.43,1.48-.33,2.8-.49,4.28-.49,9.92,0,18.06,8.05,18.24,17.93h.02v43.04l33.12,2.73c-3.28-2.7-5.62-6.5-6.46-10.84Z"/>
    <path class="cls-5" d="m325.61,137.68c.16-.66.33-1.15.33-1.81,0-3.78-3.12-6.91-6.91-6.91-1.48,0-2.8.49-3.95,1.32-1.15-4.28-4.93-7.4-9.54-7.4v-.49c0-3.73-3.04-6.8-6.74-6.89v-1.24h-9.54v17.14c-.74-.17-1.5-.29-2.3-.29-4.93,0-9.05,3.62-9.7,8.39-1.15-.99-2.63-1.48-4.28-1.48-2.3,0-4.11,1.15-5.43,2.8-.99-2.8-3.45-4.77-6.58-4.77-.92,0-1.79.19-2.59.52-1.76.71-3.15,2.11-3.83,3.92-1.64-3.12-4.93-5.26-8.72-5.26-4.44,0-8.22,2.96-9.37,7.07-1.81-1.64-4.11-2.63-6.74-2.63-1.97,0-3.95.66-5.43,1.64v-.16c0-3.78-3.12-6.91-6.91-6.91s-6.91,3.12-6.91,6.91v.82c-1.32-1.32-2.96-2.3-5.1-2.3-1.97,0-3.62.82-4.93,2.14-.52-3.75-3.18-6.85-6.68-8.03-.96-.32-1.96-.52-3.02-.52-4.11,0-7.73,2.63-9.21,6.25-.66-2.96-3.45-5.26-6.74-5.26-1.15,0-2.3.33-3.12.82.16-.66.16-1.15.16-1.81,0-5.21-4.09-9.49-9.21-9.83-.05,0-.11,0-.16,0v-9.14h-9.54v4.4c-.27-.02-.54-.05-.82-.05-4.77,0-8.88,3.45-9.7,8.06-.99-.49-1.97-.66-2.96-.66-3.78,0-6.91,3.12-6.91,6.91v.16c-.49,0-.82-.16-1.32-.16-5.43,0-9.87,4.44-9.87,9.87s4.44,9.87,9.87,9.87c1.15,0,2.3-.16,3.29-.66.99,2.63,3.45,4.6,6.41,4.6,1.64,0,3.12-.66,4.28-1.64,1.81,2.8,4.77,4.6,8.22,4.6,1.97,0,3.78-.66,5.43-1.64.82,2.8,3.45,4.77,6.58,4.77,1.81,0,3.45-.66,4.6-1.81,1.64,3.29,4.93,5.43,8.72,5.43,3.45,0,6.58-1.81,8.39-4.6,1.64,1.48,3.95,2.3,6.25,2.3,3.12,0,5.76-1.48,7.56-3.62.49,3.29,3.29,5.92,6.74,5.92,3.12,0,5.76-2.14,6.58-5.1,1.81,1.64,4.11,2.8,6.74,2.8,2.3,0,4.44-.82,6.25-2.3,1.32,3.95,4.93,6.74,9.37,6.74,4.11,0,7.57-2.47,9.05-5.92,1.32,1.81,3.29,2.96,5.59,2.96,2.14,0,3.95-.99,5.26-2.47,1.64,3.12,4.93,5.43,8.72,5.43,3.45,0,6.58-1.81,8.39-4.6,1.81,2.8,4.77,4.6,8.39,4.6,3.95,0,7.4-2.47,9.05-5.92,1.81,0,3.45-.66,4.6-1.81,1.81,1.97,4.28,3.12,7.24,3.12,4.11,0,7.57-2.47,9.05-5.92,1.97-.16,3.78-1.15,4.93-2.63.82.16,1.64.33,2.47.33,5.43,0,9.87-4.44,9.87-9.87.49-3.45-1.15-6.25-3.62-8.06Z"/>
  </g>
</svg>