<svg width="718" height="195" viewBox="0 0 718 195" fill="none" xmlns="http://www.w3.org/2000/svg">
<g clip-path="url(#clip0_887_18151)">
<path d="M179.62 49.7686C179.472 50.006 179.318 50.2306 179.158 50.4617C179.318 50.2371 179.472 50.006 179.62 49.7686Z" fill="#32D876"/>
<path d="M169.136 56.4434C169.026 56.4562 168.917 56.4754 168.808 56.4819C168.917 56.469 169.026 56.4562 169.136 56.4434Z" fill="#32D876"/>
<path d="M170.453 56.2256C170.364 56.2448 170.28 56.2641 170.19 56.2769C170.28 56.2577 170.364 56.2448 170.453 56.2256Z" fill="#32D876"/>
<path d="M49.5407 56.5527C49.5407 57.2009 49.4895 57.8299 49.4064 58.446V153.43C49.4511 153.43 49.4959 153.43 49.5407 153.437V56.5527Z" fill="#32D876"/>
<path d="M49.5285 56.2764C49.5285 56.3662 49.5413 56.4625 49.5413 56.5523V56.2764H49.5285Z" fill="#32D876"/>
<path d="M38.1958 56.2765C37.2251 56.2765 36.3959 56.1353 35.5667 56.0005C35.4252 56.0005 35.1488 55.8593 34.8724 55.8593C34.1782 55.7181 33.6254 55.5834 33.0726 55.3074C32.7962 55.1662 32.6547 55.1662 32.3783 55.0314C31.5491 54.7555 30.8549 54.3383 30.1671 53.9276L30.0321 53.7864C29.4793 53.3692 28.9264 52.9585 28.3736 52.4065C28.2322 52.2653 27.9558 51.9894 27.8208 51.8546C27.403 51.4374 26.9916 50.8855 26.7152 50.4748C26.4388 50.1988 26.2973 50.0576 26.1624 49.7816C25.7445 49.0885 25.3331 48.4018 25.0567 47.7087C25.1981 40.6619 31.0091 34.9949 38.0672 34.9949C41.8019 34.9949 45.2602 36.6507 47.6129 39.2756L53.8417 45.4945C62.0054 26.703 80.8269 13.4373 102.689 13.4373H102.824V35.1297C114.034 35.1297 123.027 44.1082 123.027 55.301V67.7259C129.25 69.6513 133.91 75.3824 134.373 82.1083C134.649 90.9521 127.591 98.2749 118.733 98.2749C117.39 98.2749 116.091 98.1081 114.857 97.8064V107.253C121.17 110.989 125.637 117.573 126.344 125.358L130.118 164.481C130.786 164.212 131.519 164.045 132.297 164.045C134.926 164.045 137.002 165.701 137.831 168.05C138.937 166.67 140.46 165.701 142.395 165.701C143.777 165.701 145.024 166.118 145.995 166.946C146.548 162.941 150.006 159.899 154.159 159.899C154.834 159.899 155.476 160.002 156.093 160.143V58.6703C156.003 58.0286 155.958 57.3675 155.958 56.6872C155.958 48.2606 162.875 41.3486 171.322 41.3486C171.476 41.3486 171.63 41.3678 171.784 41.3742C171.952 41.3678 172.119 41.3486 172.292 41.3486C176.027 41.3486 179.35 43.5563 181.009 46.7396C180.675 47.7921 180.212 48.7997 179.646 49.7303C181.028 47.529 181.838 44.9426 181.838 42.1829C181.838 34.3082 175.474 27.8133 167.445 27.8133C163.434 27.8133 159.835 29.4691 157.206 31.9592L150.565 38.5889L150.43 38.7301C143.79 27.6785 133.409 19.1107 120.951 14.9648L123.027 11.3708C117.075 9.16303 110.57 7.91797 103.794 7.91797C82.3439 7.91797 63.7989 20.3558 54.9474 38.4541L48.3071 31.8245C45.6781 29.1996 42.0783 27.6785 38.0672 27.6785C30.1799 27.6785 23.6747 34.1734 23.6747 42.0481C23.6747 49.9228 30.1799 56.4177 38.0672 56.4177H42.4897C42.4897 56.3728 42.4897 56.3278 42.4897 56.2765H38.2086H38.1958Z" fill="#32D876"/>
<path d="M90.784 107.253V97.8894C89.672 98.1397 88.5149 98.2809 87.3257 98.2809C79.6763 98.2809 73.3832 92.8129 71.9818 85.6249C71.9818 85.6506 71.969 85.6763 71.969 85.7084C71.9561 85.6121 71.9497 85.5223 71.9368 85.426C71.744 84.3542 71.654 83.2503 71.6926 82.1144C71.924 75.4398 76.4751 69.7408 82.6268 67.7769V55.3134C82.6268 44.1207 91.6197 35.1421 102.83 35.1421V13.4434H102.695C80.8333 13.4434 62.0119 26.7091 53.8482 45.5005L47.6193 39.2816C45.2667 36.6567 41.8083 35.0009 38.0736 35.0009C31.0156 35.0009 25.2046 40.6679 25.0632 47.7147C25.3396 48.4078 25.7574 49.0945 26.1688 49.7877C26.3102 50.0636 26.4452 50.2048 26.7216 50.4808C26.998 50.8979 27.4158 51.4499 27.8272 51.8606C27.9687 52.0018 28.2451 52.2778 28.3801 52.4126C28.9329 52.9645 29.4857 53.3817 30.0385 53.7924L30.1735 53.9336C30.8677 54.3508 31.5555 54.7615 32.3848 55.0375C32.6612 55.1786 32.8026 55.1786 33.079 55.3134C33.6318 55.5894 34.1846 55.7306 34.8789 55.8654C35.1553 55.8654 35.4317 56.0066 35.5731 56.0066C36.4023 56.1477 37.2315 56.2825 38.2022 56.2825H42.4833C42.3547 49.2229 37.4244 43.2735 30.5913 41.637C31.8384 41.361 32.944 41.2198 34.1911 41.2198C42.5411 41.2198 49.3871 47.9778 49.5349 56.2825H49.5478V153.442C53.861 153.731 57.3001 157.332 57.3001 161.702C57.3001 162.254 57.3001 162.671 57.1586 163.223C57.8529 162.806 58.8171 162.53 59.7877 162.53C62.5582 162.53 64.9109 164.462 65.4637 166.952C66.7108 163.91 69.7513 161.702 73.216 161.702C74.1031 161.702 74.9516 161.875 75.7616 162.145L79.3099 125.364C80.017 117.579 84.4845 110.995 90.7969 107.26L90.784 107.253Z" fill="#1BAF61"/>
<path d="M114.857 107.253V108.088C114.857 108.64 114.439 109.057 113.887 109.057H110.55C108.783 110.398 105.98 111.265 102.811 111.265C99.642 111.265 96.8393 110.392 95.0716 109.057H91.7354C91.1826 109.057 90.7648 108.64 90.7648 108.088V107.253C84.4524 110.989 79.9848 117.573 79.2777 125.358L75.7294 162.139C78.6799 163.127 80.9169 165.733 81.354 168.884C82.4596 167.78 83.8481 167.087 85.5066 167.087C87.3064 167.087 88.6885 167.915 89.7941 169.019V168.326C89.7941 165.149 92.4232 162.524 95.6051 162.524C98.787 162.524 101.416 165.149 101.416 168.326V168.467C102.663 167.639 104.322 167.087 105.98 167.087C108.191 167.087 110.133 167.915 111.656 169.295C112.627 165.842 115.809 163.352 119.543 163.352C122.725 163.352 125.496 165.149 126.878 167.774C127.45 166.253 128.62 165.072 130.098 164.475L126.325 125.352C125.618 117.567 121.15 110.982 114.838 107.247L114.857 107.253Z" fill="#86F7BC"/>
<path d="M95.0844 109.057C96.8521 110.398 99.6548 111.264 102.824 111.264C105.993 111.264 108.796 110.392 110.563 109.057H95.0908H95.0844Z" fill="#1BAF61"/>
<path d="M103.929 87.9168C103.653 87.0889 102.406 87.0889 102.13 87.9168C100.304 92.9292 96.0293 96.7157 90.784 97.8902V108.088C90.784 108.64 91.2018 109.057 91.7546 109.057H113.899C114.452 109.057 114.87 108.64 114.87 108.088V97.8067C109.753 96.5424 105.723 92.8136 103.936 87.9168H103.929Z" fill="white"/>
<path d="M82.6139 55.3076V67.7711C83.8481 67.3732 85.1466 67.1165 86.4901 67.0459H88.5278C90.5333 63.5931 96.1708 61.1029 102.824 61.1029C109.477 61.1029 115.114 63.5931 117.12 67.0459H119.293C120.585 67.11 121.832 67.3539 123.027 67.7262V55.3012C123.027 44.1085 114.034 35.1299 102.824 35.1299C91.6133 35.1299 82.6203 44.1085 82.6203 55.3012L82.6139 55.3076ZM108.217 49.3647C108.217 48.1196 109.323 47.0157 110.57 47.0157C111.817 47.0157 112.922 47.9848 112.922 49.3647V55.1664C112.922 56.4115 111.817 57.5153 110.57 57.5153C109.323 57.5153 108.217 56.4115 108.217 55.1664V49.3647ZM92.8539 49.3647C92.8539 48.1196 93.9595 47.0157 95.2066 47.0157C96.4536 47.0157 97.5592 47.9848 97.5592 49.3647V55.1664C97.5592 56.4115 96.4536 57.5153 95.2066 57.5153C93.9595 57.5153 92.8539 56.4115 92.8539 55.1664V49.3647Z" fill="white"/>
<path d="M71.9304 85.42C71.8018 84.2905 71.6861 83.2572 71.6861 82.1084C71.6476 83.2444 71.7376 84.3482 71.9304 85.42Z" fill="#1BAF61"/>
<path d="M117.114 67.0523C117.615 67.9187 117.904 68.8493 117.904 69.8184C117.904 74.6254 111.148 78.521 102.817 78.521C96.2543 78.521 90.6812 76.0951 88.6113 72.7193H86.49C79.1813 73.13 73.1132 78.4825 71.9754 85.6256C73.3767 92.8136 79.6698 98.2816 87.3193 98.2816C88.5085 98.2816 89.6655 98.1404 90.7776 97.8901C96.0229 96.7156 100.298 92.9291 102.123 87.9167C102.4 87.0888 103.647 87.0888 103.923 87.9167C105.71 92.8136 109.74 96.5423 114.857 97.8067C116.091 98.1147 117.39 98.2752 118.733 98.2752C127.591 98.2752 134.649 90.9524 134.373 82.1086C133.91 75.3891 129.25 69.6515 123.027 67.7262C121.832 67.354 120.585 67.1101 119.293 67.0459H117.12L117.114 67.0523Z" fill="#1BAF61"/>
<path d="M86.4901 72.7187H88.6113C88.0521 71.8074 87.7371 70.8383 87.7371 69.8179C87.7371 68.7974 88.0199 67.9246 88.5278 67.0518H86.4901C85.1466 67.1224 83.8545 67.3791 82.6139 67.777C76.4622 69.7408 71.9111 75.4399 71.6797 82.1145C71.6797 83.2633 71.8019 84.2965 71.924 85.4261C71.9368 85.5223 71.9433 85.6122 71.9561 85.7085C71.9561 85.6828 71.969 85.6571 71.969 85.625C73.1068 78.4819 79.1749 73.1295 86.4836 72.7187H86.4901Z" fill="#32D876"/>
<path d="M88.6113 72.7193C90.6812 76.0951 96.2543 78.521 102.817 78.521C111.148 78.521 117.904 74.6254 117.904 69.8184C117.904 68.8493 117.621 67.9251 117.113 67.0523C115.108 63.5995 109.47 61.1094 102.817 61.1094C96.1643 61.1094 90.5269 63.5995 88.5213 67.0523C88.0135 67.9187 87.7307 68.8493 87.7307 69.8184C87.7307 70.8388 88.0521 71.8079 88.6049 72.7193H88.6113Z" fill="#012462"/>
<path d="M172.292 41.3555C172.119 41.3555 171.952 41.3747 171.784 41.3811C172.871 41.4132 173.951 41.5288 174.921 41.7726C168.14 43.2937 163.158 49.3714 163.158 56.5594H167.445C167.902 56.5594 168.358 56.5337 168.802 56.4888C168.911 56.4759 169.02 56.4631 169.13 56.4503C169.49 56.4053 169.843 56.354 170.19 56.2834C170.28 56.2641 170.364 56.2513 170.454 56.232C173.681 55.5453 176.496 53.7804 178.502 51.3416C178.547 51.2903 178.585 51.2325 178.63 51.1812C178.817 50.9502 178.997 50.7127 179.164 50.4688C179.325 50.2442 179.479 50.0132 179.627 49.7757C179.633 49.7629 179.64 49.75 179.646 49.7372C180.212 48.8066 180.675 47.799 181.009 46.7465C179.35 43.5696 176.027 41.3555 172.292 41.3555Z" fill="#1BAF61"/>
<path d="M159.558 21.0427C156.511 22.0118 153.882 23.8088 151.53 26.1578L151.388 26.2989C146.265 20.2212 139.901 15.1062 132.708 11.3774L134.09 8.88731C134.508 8.19419 134.232 7.23151 133.396 6.95554L125.92 4.05467C122.185 2.67483 118.444 1.56454 114.574 0.877835C90.2184 -3.1269 67.1093 6.82076 53.4111 25.6122C49.2585 21.7423 43.8653 19.6693 38.1893 19.6693C24.626 19.6693 13.8333 31.5487 15.9095 45.5076C17.433 56.5591 27.3966 64.7098 38.7421 64.7098H41.3712V149.451C41.1398 149.432 40.9148 149.406 40.677 149.406C36.6659 149.406 33.2011 152.307 32.5133 156.177C31.6841 155.76 30.8549 155.625 30.0192 155.625C26.8373 155.625 24.2082 158.25 24.2082 161.427V161.568C23.7904 161.568 23.514 161.427 23.1026 161.427C18.5386 161.427 14.7975 165.156 14.7975 169.719C14.7975 174.282 18.5322 178.011 23.1026 178.011C24.0732 178.011 25.0374 177.869 25.8731 177.459C26.7023 179.666 28.7786 181.329 31.2727 181.329C32.6547 181.329 33.9018 180.777 34.8724 179.949C36.3959 182.298 38.8836 183.819 41.7891 183.819C43.4475 183.819 44.971 183.267 46.353 182.439C47.0473 184.788 49.2585 186.444 51.8876 186.444C53.4111 186.444 54.7931 185.892 55.7638 184.923C57.1458 187.689 59.9163 189.479 63.0982 189.479C66.0037 189.479 68.6328 187.958 70.1563 185.609C71.5383 186.854 73.4796 187.541 75.4144 187.541C78.0435 187.541 80.2548 186.296 81.7783 184.499C82.1961 187.265 84.5488 189.473 87.4543 189.473C90.0834 189.473 92.2946 187.676 92.9889 185.192C94.5123 186.572 96.4472 187.541 98.6649 187.541C100.6 187.541 102.4 186.848 103.923 185.609C105.029 188.927 108.076 191.276 111.81 191.276C115.269 191.276 118.174 189.203 119.421 186.302C120.527 187.823 122.192 188.793 124.127 188.793C125.926 188.793 127.45 187.965 128.556 186.72C129.938 189.344 132.708 191.276 135.89 191.276C138.795 191.276 141.425 189.755 142.948 187.406C144.471 189.755 146.959 191.276 150.006 191.276C153.329 191.276 156.235 189.203 157.617 186.302C159.14 186.302 160.522 185.75 161.493 184.781C163.017 186.437 165.093 187.406 167.581 187.406C171.039 187.406 173.944 185.333 175.191 182.432C176.85 182.291 178.373 181.463 179.344 180.225C180.038 180.366 180.726 180.501 181.42 180.501C185.984 180.501 189.725 176.772 189.725 172.209C190.143 169.308 188.755 166.959 186.678 165.438C186.82 164.886 186.955 164.469 186.955 163.917C186.955 160.74 184.326 158.115 181.144 158.115C179.897 158.115 178.791 158.532 177.82 159.219C176.85 155.625 173.668 153 169.792 153V152.583C169.792 149.451 167.233 146.871 164.116 146.794V64.851H166.61C178.791 64.851 189.166 55.5964 189.86 43.5758C190.831 28.1024 175.744 15.6646 159.552 21.0556L159.558 21.0427ZM179.646 49.7305C179.646 49.7305 179.633 49.7562 179.627 49.769C179.479 50.0065 179.325 50.2375 179.164 50.4622C178.997 50.706 178.817 50.9435 178.63 51.1745C178.585 51.2259 178.547 51.2836 178.502 51.335C176.503 53.7738 173.681 55.5387 170.454 56.2254C170.364 56.2446 170.28 56.2639 170.19 56.2767C169.843 56.3473 169.49 56.3987 169.13 56.4436C169.02 56.4564 168.911 56.4757 168.802 56.4821C168.352 56.527 167.902 56.5527 167.446 56.5527H163.158C163.158 49.3711 168.14 43.287 174.921 41.766C173.951 41.5221 172.871 41.4066 171.784 41.3745C171.63 41.3745 171.476 41.3488 171.322 41.3488C162.882 41.3488 155.959 48.2544 155.959 56.6875C155.959 57.3678 156.01 58.0288 156.093 58.6706V160.143C155.47 159.996 154.827 159.899 154.159 159.899C150.006 159.899 146.548 162.941 145.995 166.946C145.024 166.118 143.784 165.701 142.395 165.701C140.46 165.701 138.937 166.67 137.831 168.05C137.002 165.701 134.926 164.045 132.297 164.045C131.519 164.045 130.793 164.206 130.118 164.482C128.639 165.079 127.469 166.259 126.897 167.78C125.515 165.156 122.745 163.359 119.563 163.359C115.828 163.359 112.646 165.849 111.675 169.302C110.152 167.922 108.217 167.094 105.999 167.094C104.341 167.094 102.676 167.646 101.435 168.474V168.332C101.435 165.156 98.8063 162.531 95.6244 162.531C92.4425 162.531 89.8134 165.156 89.8134 168.332V169.026C88.7077 167.922 87.3193 167.094 85.5258 167.094C83.8674 167.094 82.4789 167.787 81.3733 168.891C80.9362 165.746 78.6992 163.134 75.7487 162.146C74.9452 161.876 74.0967 161.703 73.2032 161.703C69.7449 161.703 66.6979 163.911 65.4509 166.953C64.8981 164.462 62.5454 162.531 59.7749 162.531C58.8042 162.531 57.84 162.807 57.1458 163.224C57.2872 162.672 57.2872 162.255 57.2872 161.703C57.2872 157.332 53.8482 153.732 49.5349 153.443C49.4899 153.443 49.4449 153.443 49.3999 153.437V58.446C49.4899 57.8298 49.5349 57.2009 49.5349 56.5527C49.5349 56.4564 49.5221 56.3666 49.5221 56.2767C49.3742 47.9784 42.5219 41.214 34.1782 41.214C32.9311 41.214 31.8255 41.3552 30.5785 41.6312C37.4051 43.2677 42.3419 49.2171 42.4704 56.2767C42.4704 56.3217 42.4704 56.3666 42.4704 56.4179H38.0479C30.1606 56.4179 23.6554 49.9231 23.6554 42.0484C23.6554 34.1736 30.1606 27.6788 38.0479 27.6788C42.059 27.6788 45.6588 29.1998 48.2879 31.8247L54.9281 38.4544C63.786 20.356 82.3311 7.91822 103.775 7.91822C110.557 7.91822 117.062 9.16328 123.008 11.371L120.932 14.965C133.389 19.111 143.764 27.6788 150.411 38.7303L150.546 38.5891L157.186 31.9595C159.815 29.4694 163.415 27.8136 167.426 27.8136C175.455 27.8136 181.819 34.3084 181.819 42.1831C181.819 44.9492 181.002 47.5292 179.627 49.7305H179.646Z" fill="#012462"/>
<path d="M183.779 183.389C180.597 183.389 177.968 186.014 177.968 189.19C177.968 192.367 180.597 194.992 183.779 194.992C186.961 194.992 189.59 192.367 189.59 189.19C189.59 186.014 187.096 183.389 183.779 183.389Z" fill="#012462"/>
<path d="M5.811 163.628C2.62909 163.628 0 166.253 0 169.43C0 172.607 2.62909 175.231 5.811 175.231C8.99291 175.231 11.622 172.607 11.622 169.43C11.4806 166.253 8.99291 163.628 5.811 163.628Z" fill="#012462"/>
<path d="M195.401 174.545C193.325 174.545 191.667 176.201 191.667 178.274C191.667 180.347 193.325 181.868 195.401 181.868C197.478 181.868 199.001 180.212 199.001 178.274C199.142 176.201 197.478 174.545 195.401 174.545Z" fill="#012462"/>
<path d="M110.57 57.5211C111.817 57.5211 112.922 56.4172 112.922 55.1722V49.3704C112.922 47.9906 111.817 47.0215 110.57 47.0215C109.323 47.0215 108.217 48.1254 108.217 49.3704V55.1722C108.217 56.4172 109.323 57.5211 110.57 57.5211Z" fill="#012462"/>
<path d="M95.2066 57.5211C96.4536 57.5211 97.5593 56.4172 97.5593 55.1722V49.3704C97.5593 47.9906 96.4536 47.0215 95.2066 47.0215C93.9595 47.0215 92.8539 48.1254 92.8539 49.3704V55.1722C92.8539 56.4172 93.9595 57.5211 95.2066 57.5211Z" fill="#012462"/>
<path d="M710.939 67C715.241 67 717.878 70.1383 717.878 73.7508C717.878 77.3634 715.241 80.5341 710.939 80.5341C706.638 80.5341 704 77.2984 704 73.7508C704 70.2032 706.638 67 710.939 67ZM705.098 73.7508C705.098 76.9865 707.457 79.592 710.939 79.592C714.422 79.592 716.78 76.9865 716.78 73.7508C716.78 70.5151 714.454 67.9421 710.939 67.9421C707.424 67.9421 705.098 70.5151 705.098 73.7508ZM712.193 74.628L713.824 76.5122H712.252L710.809 74.7839H710.023V76.5122H708.769V70.5151H711.284C712.603 70.5151 713.545 71.4897 713.545 72.6528C713.545 73.5299 713.012 74.3161 712.193 74.628ZM711.063 73.7833C711.849 73.7833 712.317 73.3415 712.317 72.6528C712.317 71.964 711.849 71.5547 711.063 71.5547H710.023V73.7833H711.063Z" fill="#012462"/>
<path d="M238.794 65.952C257.61 65.952 270.538 78.24 273.226 92.32H252.874C250.954 87.584 246.73 83.36 238.666 83.36C228.938 83.36 223.818 90.784 223.818 99.744C223.818 108.704 228.938 116.128 238.666 116.128C246.73 116.128 250.954 111.904 252.874 107.168H273.226C270.538 121.248 257.61 133.536 238.794 133.536C217.034 133.536 203.082 119.2 203.082 99.744C203.082 80.288 217.034 65.952 238.794 65.952ZM314.871 65.952C337.783 65.952 350.712 82.336 350.712 99.744C350.712 117.152 337.783 133.536 314.871 133.536C291.959 133.536 279.031 117.152 279.031 99.744C279.031 82.336 291.959 65.952 314.871 65.952ZM314.871 116.128C325.111 116.128 330.231 108.32 330.231 99.744C330.231 91.168 325.111 83.36 314.871 83.36C304.631 83.36 299.511 91.168 299.511 99.744C299.511 108.32 304.631 116.128 314.871 116.128ZM381.044 95.264V132H360.052V67.488H380.404V77.088C383.22 70.944 390.901 65.952 399.861 65.952C415.348 65.952 423.029 76.576 423.029 91.936V132H402.036V95.392C402.036 88.736 398.836 84.128 391.797 84.128C385.268 84.128 381.044 88.096 381.044 95.264ZM456.235 95.264V132H435.243V67.488H455.595V77.088C458.411 70.944 466.091 65.952 475.051 65.952C490.539 65.952 498.219 76.576 498.219 91.936V132H477.227V95.392C477.227 88.736 474.027 84.128 466.987 84.128C460.458 84.128 456.235 88.096 456.235 95.264ZM541.921 118.304C548.193 118.304 553.057 115.872 555.489 111.904H574.817C570.849 124.064 558.049 133.536 541.921 133.536C519.393 133.536 506.593 119.456 506.593 99.616C506.593 79.648 520.929 65.952 541.025 65.952C560.993 65.952 575.329 79.008 575.329 99.872V106.144H527.201C528.481 113.184 532.833 118.304 541.921 118.304ZM541.281 80.544C533.345 80.544 528.353 85.152 527.201 93.216H555.233C554.209 85.536 549.217 80.544 541.281 80.544ZM616.745 65.952C635.561 65.952 648.489 78.24 651.177 92.32H630.825C628.905 87.584 624.681 83.36 616.617 83.36C606.889 83.36 601.769 90.784 601.769 99.744C601.769 108.704 606.889 116.128 616.617 116.128C624.681 116.128 628.905 111.904 630.825 107.168H651.177C648.489 121.248 635.561 133.536 616.745 133.536C594.985 133.536 581.033 119.2 581.033 99.744C581.033 80.288 594.985 65.952 616.745 65.952ZM693.078 116.128C695.638 116.128 697.686 115.744 699.734 115.104V131.744C697.558 132.64 691.67 133.536 687.318 133.536C671.83 133.536 664.79 124.32 664.79 110.112V84.768H653.654V67.488H664.79V48.16H685.782V67.488H700.374V84.768H685.782V108.832C685.782 113.824 688.086 116.128 693.078 116.128Z" fill="#012462"/>
</g>
<defs>
<clipPath id="clip0_887_18151">
<rect width="717.878" height="194.992" fill="white"/>
</clipPath>
</defs>
</svg>
