<svg width="671" height="195" viewBox="0 0 671 195" fill="none" xmlns="http://www.w3.org/2000/svg">
<g clip-path="url(#clip0_888_18218)">
<path d="M179.62 49.7686C179.472 50.006 179.318 50.2306 179.158 50.4617C179.318 50.2371 179.472 50.006 179.62 49.7686Z" fill="#32D876"/>
<path d="M169.136 56.4429C169.026 56.4557 168.917 56.475 168.808 56.4814C168.917 56.4685 169.026 56.4557 169.136 56.4429Z" fill="#32D876"/>
<path d="M170.453 56.2251C170.364 56.2444 170.28 56.2636 170.19 56.2764C170.28 56.2572 170.364 56.2444 170.453 56.2251Z" fill="#32D876"/>
<path d="M49.5407 56.5522C49.5407 57.2004 49.4895 57.8294 49.4064 58.4455V153.43C49.4511 153.43 49.4959 153.43 49.5407 153.436V56.5522Z" fill="#32D876"/>
<path d="M49.5285 56.2764C49.5285 56.3662 49.5413 56.4625 49.5413 56.5523V56.2764H49.5285Z" fill="#32D876"/>
<path d="M38.1958 56.2765C37.2251 56.2765 36.3959 56.1353 35.5667 56.0005C35.4252 56.0005 35.1488 55.8593 34.8724 55.8593C34.1782 55.7181 33.6254 55.5834 33.0726 55.3074C32.7962 55.1662 32.6547 55.1662 32.3783 55.0314C31.5491 54.7555 30.8549 54.3383 30.1671 53.9276L30.0321 53.7864C29.4793 53.3692 28.9264 52.9585 28.3736 52.4065C28.2322 52.2653 27.9558 51.9894 27.8208 51.8546C27.403 51.4374 26.9916 50.8855 26.7152 50.4748C26.4388 50.1988 26.2973 50.0576 26.1624 49.7816C25.7445 49.0885 25.3331 48.4018 25.0567 47.7087C25.1981 40.6619 31.0091 34.9949 38.0672 34.9949C41.8019 34.9949 45.2602 36.6507 47.6129 39.2756L53.8417 45.4945C62.0054 26.703 80.8269 13.4373 102.689 13.4373H102.824V35.1297C114.034 35.1297 123.027 44.1082 123.027 55.301V67.7259C129.25 69.6513 133.91 75.3824 134.373 82.1083C134.649 90.9521 127.591 98.2749 118.733 98.2749C117.39 98.2749 116.091 98.1081 114.857 97.8064V107.253C121.17 110.989 125.637 117.573 126.344 125.358L130.118 164.481C130.786 164.212 131.519 164.045 132.297 164.045C134.926 164.045 137.002 165.701 137.831 168.05C138.937 166.67 140.46 165.701 142.395 165.701C143.777 165.701 145.024 166.118 145.995 166.946C146.548 162.941 150.006 159.899 154.159 159.899C154.834 159.899 155.476 160.002 156.093 160.143V58.6703C156.003 58.0286 155.958 57.3675 155.958 56.6872C155.958 48.2606 162.875 41.3486 171.322 41.3486C171.476 41.3486 171.63 41.3678 171.784 41.3742C171.952 41.3678 172.119 41.3486 172.292 41.3486C176.027 41.3486 179.35 43.5563 181.009 46.7396C180.675 47.7921 180.212 48.7997 179.646 49.7303C181.028 47.529 181.838 44.9426 181.838 42.1829C181.838 34.3082 175.474 27.8133 167.445 27.8133C163.434 27.8133 159.835 29.4691 157.206 31.9592L150.565 38.5889L150.43 38.7301C143.79 27.6785 133.409 19.1107 120.951 14.9648L123.027 11.3708C117.075 9.16303 110.57 7.91797 103.794 7.91797C82.3439 7.91797 63.7989 20.3558 54.9474 38.4541L48.3071 31.8245C45.6781 29.1996 42.0783 27.6785 38.0672 27.6785C30.1799 27.6785 23.6747 34.1734 23.6747 42.0481C23.6747 49.9228 30.1799 56.4177 38.0672 56.4177H42.4897C42.4897 56.3728 42.4897 56.3278 42.4897 56.2765H38.2086H38.1958Z" fill="#32D876"/>
<path d="M90.784 107.253V97.8894C89.672 98.1397 88.5149 98.2809 87.3257 98.2809C79.6763 98.2809 73.3832 92.8129 71.9818 85.6249C71.9818 85.6506 71.969 85.6763 71.969 85.7084C71.9561 85.6121 71.9497 85.5223 71.9368 85.426C71.744 84.3542 71.654 83.2503 71.6926 82.1144C71.924 75.4398 76.4751 69.7408 82.6268 67.7769V55.3134C82.6268 44.1207 91.6197 35.1421 102.83 35.1421V13.4434H102.695C80.8333 13.4434 62.0119 26.7091 53.8482 45.5005L47.6193 39.2816C45.2667 36.6567 41.8083 35.0009 38.0736 35.0009C31.0156 35.0009 25.2046 40.6679 25.0632 47.7147C25.3396 48.4078 25.7574 49.0945 26.1688 49.7877C26.3102 50.0636 26.4452 50.2048 26.7216 50.4808C26.998 50.8979 27.4158 51.4499 27.8272 51.8606C27.9687 52.0018 28.2451 52.2778 28.3801 52.4126C28.9329 52.9645 29.4857 53.3817 30.0385 53.7924L30.1735 53.9336C30.8677 54.3508 31.5555 54.7615 32.3848 55.0375C32.6612 55.1786 32.8026 55.1786 33.079 55.3134C33.6318 55.5894 34.1846 55.7306 34.8789 55.8654C35.1553 55.8654 35.4317 56.0066 35.5731 56.0066C36.4023 56.1477 37.2315 56.2825 38.2022 56.2825H42.4833C42.3547 49.2229 37.4244 43.2735 30.5913 41.637C31.8384 41.361 32.944 41.2198 34.1911 41.2198C42.5411 41.2198 49.3871 47.9778 49.5349 56.2825H49.5478V153.442C53.861 153.731 57.3001 157.332 57.3001 161.702C57.3001 162.254 57.3001 162.671 57.1586 163.223C57.8529 162.806 58.8171 162.53 59.7877 162.53C62.5582 162.53 64.9109 164.462 65.4637 166.952C66.7108 163.91 69.7513 161.702 73.216 161.702C74.1031 161.702 74.9516 161.875 75.7616 162.145L79.3099 125.364C80.017 117.579 84.4845 110.995 90.7969 107.26L90.784 107.253Z" fill="#1BAF61"/>
<path d="M114.857 107.253V108.088C114.857 108.64 114.439 109.057 113.887 109.057H110.55C108.783 110.398 105.98 111.265 102.811 111.265C99.642 111.265 96.8393 110.392 95.0716 109.057H91.7354C91.1826 109.057 90.7648 108.64 90.7648 108.088V107.253C84.4524 110.989 79.9848 117.573 79.2777 125.358L75.7294 162.139C78.6799 163.127 80.9169 165.733 81.354 168.884C82.4596 167.78 83.8481 167.087 85.5066 167.087C87.3064 167.087 88.6885 167.915 89.7941 169.019V168.326C89.7941 165.149 92.4232 162.524 95.6051 162.524C98.787 162.524 101.416 165.149 101.416 168.326V168.467C102.663 167.639 104.322 167.087 105.98 167.087C108.191 167.087 110.133 167.915 111.656 169.295C112.627 165.842 115.809 163.352 119.543 163.352C122.725 163.352 125.496 165.149 126.878 167.774C127.45 166.253 128.62 165.072 130.098 164.475L126.325 125.352C125.618 117.567 121.15 110.982 114.838 107.247L114.857 107.253Z" fill="#86F7BC"/>
<path d="M95.0844 109.057C96.8521 110.398 99.6548 111.264 102.824 111.264C105.993 111.264 108.796 110.392 110.563 109.057H95.0908H95.0844Z" fill="#1BAF61"/>
<path d="M103.929 87.9163C103.653 87.0884 102.406 87.0884 102.13 87.9163C100.304 92.9287 96.0293 96.7152 90.784 97.8897V108.088C90.784 108.64 91.2018 109.057 91.7546 109.057H113.899C114.452 109.057 114.87 108.64 114.87 108.088V97.8062C109.753 96.5419 105.723 92.8132 103.936 87.9163H103.929Z" fill="white"/>
<path d="M82.6139 55.3071V67.7706C83.8481 67.3727 85.1466 67.116 86.4901 67.0454H88.5278C90.5333 63.5926 96.1708 61.1024 102.824 61.1024C109.477 61.1024 115.114 63.5926 117.12 67.0454H119.293C120.585 67.1096 121.832 67.3534 123.027 67.7257V55.3007C123.027 44.108 114.034 35.1294 102.824 35.1294C91.6133 35.1294 82.6203 44.108 82.6203 55.3007L82.6139 55.3071ZM108.217 49.3642C108.217 48.1191 109.323 47.0153 110.57 47.0153C111.817 47.0153 112.922 47.9844 112.922 49.3642V55.1659C112.922 56.411 111.817 57.5149 110.57 57.5149C109.323 57.5149 108.217 56.411 108.217 55.1659V49.3642ZM92.8539 49.3642C92.8539 48.1191 93.9595 47.0153 95.2066 47.0153C96.4536 47.0153 97.5592 47.9844 97.5592 49.3642V55.1659C97.5592 56.411 96.4536 57.5149 95.2066 57.5149C93.9595 57.5149 92.8539 56.411 92.8539 55.1659V49.3642Z" fill="white"/>
<path d="M71.9304 85.4195C71.8018 84.29 71.6861 83.2567 71.6861 82.1079C71.6476 83.2439 71.7376 84.3477 71.9304 85.4195Z" fill="#1BAF61"/>
<path d="M117.114 67.0518C117.615 67.9182 117.904 68.8488 117.904 69.8179C117.904 74.6249 111.148 78.5205 102.817 78.5205C96.2543 78.5205 90.6812 76.0946 88.6113 72.7188H86.49C79.1813 73.1295 73.1132 78.482 71.9754 85.6251C73.3767 92.8131 79.6698 98.2811 87.3193 98.2811C88.5085 98.2811 89.6655 98.1399 90.7776 97.8896C96.0229 96.7151 100.298 92.9286 102.123 87.9163C102.4 87.0884 103.647 87.0884 103.923 87.9163C105.71 92.8131 109.74 96.5419 114.857 97.8062C116.091 98.1142 117.39 98.2747 118.733 98.2747C127.591 98.2747 134.649 90.9519 134.373 82.1081C133.91 75.3886 129.25 69.6511 123.027 67.7257C121.832 67.3535 120.585 67.1096 119.293 67.0454H117.12L117.114 67.0518Z" fill="#1BAF61"/>
<path d="M86.4901 72.7187H88.6113C88.0521 71.8074 87.7371 70.8383 87.7371 69.8179C87.7371 68.7974 88.0199 67.9246 88.5278 67.0518H86.4901C85.1466 67.1224 83.8545 67.3791 82.6139 67.777C76.4622 69.7408 71.9111 75.4399 71.6797 82.1145C71.6797 83.2633 71.8019 84.2965 71.924 85.4261C71.9368 85.5223 71.9433 85.6122 71.9561 85.7085C71.9561 85.6828 71.969 85.6571 71.969 85.625C73.1068 78.4819 79.1749 73.1295 86.4836 72.7187H86.4901Z" fill="#32D876"/>
<path d="M88.6113 72.7188C90.6812 76.0946 96.2543 78.5205 102.817 78.5205C111.148 78.5205 117.904 74.6249 117.904 69.8179C117.904 68.8488 117.621 67.9246 117.113 67.0518C115.108 63.599 109.47 61.1089 102.817 61.1089C96.1643 61.1089 90.5269 63.599 88.5213 67.0518C88.0135 67.9182 87.7307 68.8488 87.7307 69.8179C87.7307 70.8383 88.0521 71.8074 88.6049 72.7188H88.6113Z" fill="#012462"/>
<path d="M172.292 41.355C172.119 41.355 171.952 41.3742 171.784 41.3807C172.871 41.4127 173.951 41.5283 174.921 41.7721C168.14 43.2932 163.158 49.3709 163.158 56.5589H167.445C167.902 56.5589 168.358 56.5332 168.802 56.4883C168.911 56.4754 169.02 56.4626 169.13 56.4498C169.49 56.4048 169.843 56.3535 170.19 56.2829C170.28 56.2637 170.364 56.2508 170.454 56.2316C173.681 55.5449 176.496 53.7799 178.502 51.3412C178.547 51.2898 178.585 51.2321 178.63 51.1807C178.817 50.9497 178.997 50.7122 179.164 50.4683C179.325 50.2437 179.479 50.0127 179.627 49.7752C179.633 49.7624 179.64 49.7495 179.646 49.7367C180.212 48.8061 180.675 47.7985 181.009 46.746C179.35 43.5691 176.027 41.355 172.292 41.355Z" fill="#1BAF61"/>
<path d="M159.558 21.0422C156.511 22.0113 153.882 23.8083 151.53 26.1573L151.388 26.2985C146.265 20.2208 139.901 15.1057 132.708 11.377L134.09 8.88682C134.508 8.1937 134.232 7.23102 133.396 6.95505L125.92 4.05418C122.185 2.67434 118.444 1.56406 114.574 0.877346C90.2184 -3.12739 67.1093 6.82027 53.4111 25.6117C49.2585 21.7418 43.8653 19.6688 38.1893 19.6688C24.626 19.6688 13.8333 31.5483 15.9095 45.5071C17.433 56.5586 27.3966 64.7093 38.7421 64.7093H41.3712V149.451C41.1398 149.431 40.9148 149.406 40.677 149.406C36.6659 149.406 33.2011 152.307 32.5133 156.177C31.6841 155.759 30.8549 155.625 30.0192 155.625C26.8373 155.625 24.2082 158.249 24.2082 161.426V161.568C23.7904 161.568 23.514 161.426 23.1026 161.426C18.5386 161.426 14.7975 165.155 14.7975 169.718C14.7975 174.281 18.5322 178.01 23.1026 178.01C24.0732 178.01 25.0374 177.869 25.8731 177.458C26.7023 179.666 28.7786 181.328 31.2727 181.328C32.6547 181.328 33.9018 180.776 34.8724 179.948C36.3959 182.297 38.8836 183.818 41.7891 183.818C43.4475 183.818 44.971 183.266 46.353 182.438C47.0473 184.787 49.2585 186.443 51.8876 186.443C53.4111 186.443 54.7931 185.891 55.7638 184.922C57.1458 187.688 59.9163 189.479 63.0982 189.479C66.0037 189.479 68.6328 187.958 70.1563 185.609C71.5383 186.854 73.4796 187.541 75.4144 187.541C78.0435 187.541 80.2548 186.295 81.7783 184.498C82.1961 187.265 84.5488 189.472 87.4543 189.472C90.0834 189.472 92.2946 187.675 92.9889 185.192C94.5123 186.571 96.4472 187.541 98.6649 187.541C100.6 187.541 102.4 186.847 103.923 185.609C105.029 188.927 108.076 191.276 111.81 191.276C115.269 191.276 118.174 189.203 119.421 186.302C120.527 187.823 122.192 188.792 124.127 188.792C125.926 188.792 127.45 187.964 128.556 186.719C129.938 189.344 132.708 191.276 135.89 191.276C138.795 191.276 141.425 189.755 142.948 187.406C144.471 189.755 146.959 191.276 150.006 191.276C153.329 191.276 156.235 189.203 157.617 186.302C159.14 186.302 160.522 185.75 161.493 184.781C163.017 186.437 165.093 187.406 167.581 187.406C171.039 187.406 173.944 185.333 175.191 182.432C176.85 182.291 178.373 181.463 179.344 180.224C180.038 180.365 180.726 180.5 181.42 180.5C185.984 180.5 189.725 176.771 189.725 172.208C190.143 169.307 188.755 166.959 186.678 165.437C186.82 164.886 186.955 164.468 186.955 163.916C186.955 160.74 184.326 158.115 181.144 158.115C179.897 158.115 178.791 158.532 177.82 159.219C176.85 155.625 173.668 153 169.792 153V152.583C169.792 149.451 167.233 146.871 164.116 146.794V64.8505H166.61C178.791 64.8505 189.166 55.5959 189.86 43.5753C190.831 28.1019 175.744 15.6641 159.552 21.0551L159.558 21.0422ZM179.646 49.73C179.646 49.73 179.633 49.7557 179.627 49.7685C179.479 50.006 179.325 50.237 179.164 50.4617C178.997 50.7055 178.817 50.943 178.63 51.174C178.585 51.2254 178.547 51.2832 178.502 51.3345C176.503 53.7733 173.681 55.5382 170.454 56.2249C170.364 56.2442 170.28 56.2634 170.19 56.2762C169.843 56.3468 169.49 56.3982 169.13 56.4431C169.02 56.4559 168.911 56.4752 168.802 56.4816C168.352 56.5265 167.902 56.5522 167.446 56.5522H163.158C163.158 49.3706 168.14 43.2865 174.921 41.7655C173.951 41.5216 172.871 41.4061 171.784 41.374C171.63 41.374 171.476 41.3483 171.322 41.3483C162.882 41.3483 155.959 48.2539 155.959 56.687C155.959 57.3673 156.01 58.0283 156.093 58.6701V160.143C155.47 159.995 154.827 159.899 154.159 159.899C150.006 159.899 146.548 162.941 145.995 166.946C145.024 166.118 143.784 165.701 142.395 165.701C140.46 165.701 138.937 166.67 137.831 168.05C137.002 165.701 134.926 164.045 132.297 164.045C131.519 164.045 130.793 164.205 130.118 164.481C128.639 165.078 127.469 166.259 126.897 167.78C125.515 165.155 122.745 163.358 119.563 163.358C115.828 163.358 112.646 165.848 111.675 169.301C110.152 167.921 108.217 167.093 105.999 167.093C104.341 167.093 102.676 167.645 101.435 168.473V168.332C101.435 165.155 98.8063 162.53 95.6244 162.53C92.4425 162.53 89.8134 165.155 89.8134 168.332V169.025C88.7077 167.921 87.3193 167.093 85.5258 167.093C83.8674 167.093 82.4789 167.786 81.3733 168.89C80.9362 165.746 78.6992 163.133 75.7487 162.145C74.9452 161.876 74.0967 161.702 73.2032 161.702C69.7449 161.702 66.6979 163.91 65.4509 166.952C64.8981 164.462 62.5454 162.53 59.7749 162.53C58.8042 162.53 57.84 162.806 57.1458 163.223C57.2872 162.671 57.2872 162.254 57.2872 161.702C57.2872 157.332 53.8482 153.731 49.5349 153.443C49.4899 153.443 49.4449 153.443 49.3999 153.436V58.4455C49.4899 57.8294 49.5349 57.2004 49.5349 56.5522C49.5349 56.4559 49.5221 56.3661 49.5221 56.2762C49.3742 47.978 42.5219 41.2135 34.1782 41.2135C32.9311 41.2135 31.8255 41.3547 30.5785 41.6307C37.4051 43.2673 42.3419 49.2166 42.4704 56.2762C42.4704 56.3212 42.4704 56.3661 42.4704 56.4174H38.0479C30.1606 56.4174 23.6554 49.9226 23.6554 42.0479C23.6554 34.1732 30.1606 27.6783 38.0479 27.6783C42.059 27.6783 45.6588 29.1993 48.2879 31.8242L54.9281 38.4539C63.786 20.3555 82.3311 7.91773 103.775 7.91773C110.557 7.91773 117.062 9.16279 123.008 11.3705L120.932 14.9645C133.389 19.1105 143.764 27.6783 150.411 38.7298L150.546 38.5886L157.186 31.959C159.815 29.4689 163.415 27.8131 167.426 27.8131C175.455 27.8131 181.819 34.3079 181.819 42.1826C181.819 44.9487 181.002 47.5287 179.627 49.73H179.646Z" fill="#012462"/>
<path d="M183.779 183.388C180.597 183.388 177.968 186.013 177.968 189.19C177.968 192.367 180.597 194.992 183.779 194.992C186.961 194.992 189.59 192.367 189.59 189.19C189.59 186.013 187.096 183.388 183.779 183.388Z" fill="#012462"/>
<path d="M5.811 163.627C2.62909 163.627 0 166.252 0 169.429C0 172.606 2.62909 175.231 5.811 175.231C8.99291 175.231 11.622 172.606 11.622 169.429C11.4806 166.252 8.99291 163.627 5.811 163.627Z" fill="#012462"/>
<path d="M195.401 174.544C193.325 174.544 191.667 176.2 191.667 178.273C191.667 180.346 193.325 181.867 195.401 181.867C197.478 181.867 199.001 180.211 199.001 178.273C199.142 176.2 197.478 174.544 195.401 174.544Z" fill="#012462"/>
<path d="M110.57 57.5211C111.817 57.5211 112.922 56.4172 112.922 55.1722V49.3704C112.922 47.9906 111.817 47.0215 110.57 47.0215C109.323 47.0215 108.217 48.1254 108.217 49.3704V55.1722C108.217 56.4172 109.323 57.5211 110.57 57.5211Z" fill="#012462"/>
<path d="M95.2066 57.5211C96.4536 57.5211 97.5593 56.4172 97.5593 55.1722V49.3704C97.5593 47.9906 96.4536 47.0215 95.2066 47.0215C93.9595 47.0215 92.8539 48.1254 92.8539 49.3704V55.1722C92.8539 56.4172 93.9595 57.5211 95.2066 57.5211Z" fill="#012462"/>
<path d="M663.939 68C668.241 68 670.878 71.1383 670.878 74.7508C670.878 78.3634 668.241 81.5341 663.939 81.5341C659.638 81.5341 657 78.2984 657 74.7508C657 71.2032 659.638 68 663.939 68ZM658.098 74.7508C658.098 77.9865 660.457 80.592 663.939 80.592C667.422 80.592 669.78 77.9865 669.78 74.7508C669.78 71.5151 667.454 68.9421 663.939 68.9421C660.424 68.9421 658.098 71.5151 658.098 74.7508ZM665.193 75.628L666.824 77.5122H665.252L663.809 75.7839H663.023V77.5122H661.769V71.5151H664.284C665.603 71.5151 666.545 72.4897 666.545 73.6528C666.545 74.5299 666.012 75.3161 665.193 75.628ZM664.063 74.7833C664.849 74.7833 665.317 74.3415 665.317 73.6528C665.317 72.964 664.849 72.5547 664.063 72.5547H663.023V74.7833H664.063Z" fill="#012462"/>
<path d="M244.394 66.976V87.84H240.17C228.65 87.84 223.914 92.576 223.914 105.12V132H202.922V67.488H223.274V80.288C225.962 69.92 233.898 66.976 242.346 66.976H244.394ZM282.475 118.304C288.747 118.304 293.611 115.872 296.043 111.904H315.371C311.403 124.064 298.603 133.536 282.475 133.536C259.947 133.536 247.147 119.456 247.147 99.616C247.147 79.648 261.483 65.952 281.579 65.952C301.547 65.952 315.883 79.008 315.883 99.872V106.144H267.755C269.035 113.184 273.387 118.304 282.475 118.304ZM281.835 80.544C273.899 80.544 268.907 85.152 267.755 93.216H295.787C294.763 85.536 289.771 80.544 281.835 80.544ZM354.227 133.536C335.539 133.536 321.971 118.944 321.971 99.744C321.971 80.544 335.539 65.952 354.227 65.952C363.955 65.952 371.379 70.944 374.963 77.088V67.488H395.187V158.752H374.195V122.4C371.251 128.928 363.955 133.536 354.227 133.536ZM358.451 83.36C349.363 83.36 342.963 90.4 342.963 99.744C342.963 109.088 349.363 116.128 358.451 116.128C367.667 116.128 374.195 109.216 374.195 99.744C374.195 90.272 367.667 83.36 358.451 83.36ZM448.825 104.48V67.488H469.817V132H449.465V122.4C446.649 128.544 439.225 133.536 430.265 133.536C414.777 133.536 407.353 122.912 407.353 107.552V67.488H428.345V104.352C428.345 111.008 431.289 115.616 438.329 115.616C444.985 115.616 448.825 111.392 448.825 104.48ZM514.046 118.304C520.318 118.304 525.182 115.872 527.614 111.904H546.942C542.974 124.064 530.174 133.536 514.046 133.536C491.518 133.536 478.718 119.456 478.718 99.616C478.718 79.648 493.054 65.952 513.15 65.952C533.118 65.952 547.454 79.008 547.454 99.872V106.144H499.326C500.606 113.184 504.958 118.304 514.046 118.304ZM513.406 80.544C505.47 80.544 500.478 85.152 499.326 93.216H527.358C526.334 85.536 521.342 80.544 513.406 80.544ZM552.902 111.904H570.182C570.566 116.512 573.51 119.456 579.142 119.456C583.878 119.456 586.822 116.896 586.822 113.44C586.822 110.496 585.158 108.832 581.574 107.936L572.742 105.632C560.326 102.56 554.822 96.672 554.822 86.176C554.822 73.504 565.83 65.952 579.014 65.952C593.478 65.952 601.542 74.272 602.694 86.048H585.414C585.286 83.232 583.622 80.032 579.398 80.032C575.686 80.032 573.638 82.08 573.638 84.896C573.638 87.712 575.43 89.248 578.63 90.016L590.022 93.088C600.646 95.904 605.638 102.048 605.638 111.392C605.638 124.832 593.094 133.536 579.398 133.536C565.446 133.536 554.31 127.392 552.902 111.904ZM646.078 116.128C648.638 116.128 650.686 115.744 652.734 115.104V131.744C650.558 132.64 644.67 133.536 640.318 133.536C624.83 133.536 617.79 124.32 617.79 110.112V84.768H606.654V67.488H617.79V48.16H638.782V67.488H653.374V84.768H638.782V108.832C638.782 113.824 641.086 116.128 646.078 116.128Z" fill="#012462"/>
</g>
<defs>
<clipPath id="clip0_888_18218">
<rect width="670.878" height="194.992" fill="white"/>
</clipPath>
</defs>
</svg>
